<svg width="800" height="80" viewBox="0 0 800 80" xmlns="http://www.w3.org/2000/svg" xmlns:xlink="http://www.w3.org/1999/xlink"><rect transform="translate(-75, 15) rotate(0, 25, 25)" width="50" height="50" fill="none" stroke="rgb(110, 64, 170)"/><rect transform="translate(-72, 15) rotate(-3, 25, 25)" width="50" height="50" fill="none" stroke="rgb(108, 67, 175)"/><rect transform="translate(-69, 15) rotate(-6, 25, 25)" width="50" height="50" fill="none" stroke="rgb(106, 70, 181)"/><rect transform="translate(-66, 15) rotate(-9, 25, 25)" width="50" height="50" fill="none" stroke="rgb(104, 73, 186)"/><rect transform="translate(-63, 15) rotate(-12, 25, 25)" width="50" height="50" fill="none" stroke="rgb(102, 77, 191)"/><rect transform="translate(-60, 15) rotate(-15, 25, 25)" width="50" height="50" fill="none" stroke="rgb(99, 81, 195)"/><rect transform="translate(-57, 15) rotate(-18, 25, 25)" width="50" height="50" fill="none" stroke="rgb(96, 84, 200)"/><rect transform="translate(-54, 15) rotate(-21, 25, 25)" width="50" height="50" fill="none" stroke="rgb(93, 88, 204)"/><rect transform="translate(-51, 15) rotate(-24, 25, 25)" width="50" height="50" fill="none" stroke="rgb(90, 93, 208)"/><rect transform="translate(-48, 15) rotate(-27, 25, 25)" width="50" height="50" fill="none" stroke="rgb(87, 97, 211)"/><rect transform="translate(-45, 15) rotate(-30, 25, 25)" width="50" height="50" fill="none" stroke="rgb(84, 101, 214)"/><rect transform="translate(-42, 15) rotate(-33, 25, 25)" width="50" height="50" fill="none" stroke="rgb(80, 106, 217)"/><rect transform="translate(-39, 15) rotate(-36, 25, 25)" width="50" height="50" fill="none" stroke="rgb(76, 110, 219)"/><rect transform="translate(-36, 15) rotate(-39, 25, 25)" width="50" height="50" fill="none" stroke="rgb(73, 115, 221)"/><rect transform="translate(-33, 15) rotate(-42, 25, 25)" width="50" height="50" fill="none" stroke="rgb(69, 120, 223)"/><rect transform="translate(-30, 15) rotate(-45, 25, 25)" width="50" height="50" fill="none" stroke="rgb(65, 125, 224)"/><rect transform="translate(-27, 15) rotate(-48, 25, 25)" width="50" height="50" fill="none" stroke="rgb(61, 130, 225)"/><rect transform="translate(-24, 15) rotate(-51, 25, 25)" width="50" height="50" fill="none" stroke="rgb(58, 135, 225)"/><rect transform="translate(-21, 15) rotate(-54, 25, 25)" width="50" height="50" fill="none" stroke="rgb(54, 140, 225)"/><rect transform="translate(-18, 15) rotate(-57, 25, 25)" width="50" height="50" fill="none" stroke="rgb(51, 145, 225)"/><rect transform="translate(-15, 15) rotate(-60, 25, 25)" width="50" height="50" fill="none" stroke="rgb(47, 150, 224)"/><rect transform="translate(-12, 15) rotate(-63, 25, 25)" width="50" height="50" fill="none" stroke="rgb(44, 156, 223)"/><rect transform="translate(-9, 15) rotate(-66, 25, 25)" width="50" height="50" fill="none" stroke="rgb(41, 161, 221)"/><rect transform="translate(-6, 15) rotate(-69, 25, 25)" width="50" height="50" fill="none" stroke="rgb(38, 166, 219)"/><rect transform="translate(-3, 15) rotate(-72, 25, 25)" width="50" height="50" fill="none" stroke="rgb(35, 171, 216)"/><rect transform="translate(0, 15) rotate(-75, 25, 25)" width="50" height="50" fill="none" stroke="rgb(33, 176, 213)"/><rect transform="translate(3, 15) rotate(-78, 25, 25)" width="50" height="50" fill="none" stroke="rgb(31, 181, 210)"/><rect transform="translate(6, 15) rotate(-81, 25, 25)" width="50" height="50" fill="none" stroke="rgb(29, 186, 206)"/><rect transform="translate(9, 15) rotate(-84, 25, 25)" width="50" height="50" fill="none" stroke="rgb(28, 190, 203)"/><rect transform="translate(12, 15) rotate(-87, 25, 25)" width="50" height="50" fill="none" stroke="rgb(26, 195, 198)"/><rect transform="translate(15, 15) rotate(-90, 25, 25)" width="50" height="50" fill="none" stroke="rgb(26, 199, 194)"/><rect transform="translate(18, 15) rotate(-93, 25, 25)" width="50" height="50" fill="none" stroke="rgb(25, 204, 189)"/><rect transform="translate(21, 15) rotate(-96, 25, 25)" width="50" height="50" fill="none" stroke="rgb(25, 208, 184)"/><rect transform="translate(24, 15) rotate(-99, 25, 25)" width="50" height="50" fill="none" stroke="rgb(26, 212, 179)"/><rect transform="translate(27, 15) rotate(-102, 25, 25)" width="50" height="50" fill="none" stroke="rgb(26, 216, 174)"/><rect transform="translate(30, 15) rotate(-105, 25, 25)" width="50" height="50" fill="none" stroke="rgb(28, 219, 169)"/><rect transform="translate(33, 15) rotate(-108, 25, 25)" width="50" height="50" fill="none" stroke="rgb(29, 223, 163)"/><rect transform="translate(36, 15) rotate(-111, 25, 25)" width="50" height="50" fill="none" stroke="rgb(31, 226, 158)"/><rect transform="translate(39, 15) rotate(-114, 25, 25)" width="50" height="50" fill="none" stroke="rgb(34, 229, 152)"/><rect transform="translate(42, 15) rotate(-117, 25, 25)" width="50" height="50" fill="none" stroke="rgb(37, 232, 146)"/><rect transform="translate(45, 15) rotate(-120, 25, 25)" width="50" height="50" fill="none" stroke="rgb(40, 234, 141)"/><rect transform="translate(48, 15) rotate(-123, 25, 25)" width="50" height="50" fill="none" stroke="rgb(44, 236, 135)"/><rect transform="translate(51, 15) rotate(-126, 25, 25)" width="50" height="50" fill="none" stroke="rgb(48, 239, 130)"/><rect transform="translate(54, 15) rotate(-129, 25, 25)" width="50" height="50" fill="none" stroke="rgb(53, 240, 125)"/><rect transform="translate(57, 15) rotate(-132, 25, 25)" width="50" height="50" fill="none" stroke="rgb(58, 242, 120)"/><rect transform="translate(60, 15) rotate(-135, 25, 25)" width="50" height="50" fill="none" stroke="rgb(64, 243, 115)"/><rect transform="translate(63, 15) rotate(-138, 25, 25)" width="50" height="50" fill="none" stroke="rgb(69, 244, 111)"/><rect transform="translate(66, 15) rotate(-141, 25, 25)" width="50" height="50" fill="none" stroke="rgb(76, 245, 107)"/><rect transform="translate(69, 15) rotate(-144, 25, 25)" width="50" height="50" fill="none" stroke="rgb(82, 246, 103)"/><rect transform="translate(72, 15) rotate(-147, 25, 25)" width="50" height="50" fill="none" stroke="rgb(89, 246, 99)"/><rect transform="translate(75, 15) rotate(-150, 25, 25)" width="50" height="50" fill="none" stroke="rgb(96, 247, 96)"/><rect transform="translate(78, 15) rotate(-153, 25, 25)" width="50" height="50" fill="none" stroke="rgb(103, 247, 94)"/><rect transform="translate(81, 15) rotate(-156, 25, 25)" width="50" height="50" fill="none" stroke="rgb(111, 246, 91)"/><rect transform="translate(84, 15) rotate(-159, 25, 25)" width="50" height="50" fill="none" stroke="rgb(119, 246, 89)"/><rect transform="translate(87, 15) rotate(-162, 25, 25)" width="50" height="50" fill="none" stroke="rgb(127, 246, 88)"/><rect transform="translate(90, 15) rotate(-165, 25, 25)" width="50" height="50" fill="none" stroke="rgb(135, 245, 87)"/><rect transform="translate(93, 15) rotate(-168, 25, 25)" width="50" height="50" fill="none" stroke="rgb(143, 244, 87)"/><rect transform="translate(96, 15) rotate(-171, 25, 25)" width="50" height="50" fill="none" stroke="rgb(151, 243, 87)"/><rect transform="translate(99, 15) rotate(-174, 25, 25)" width="50" height="50" fill="none" stroke="rgb(159, 242, 88)"/><rect transform="translate(102, 15) rotate(-177, 25, 25)" width="50" height="50" fill="none" stroke="rgb(167, 241, 89)"/><rect transform="translate(105, 15) rotate(-180, 25, 25)" width="50" height="50" fill="none" stroke="rgb(175, 240, 91)"/><rect transform="translate(108, 15) rotate(-183, 25, 25)" width="50" height="50" fill="none" stroke="rgb(178, 236, 84)"/><rect transform="translate(111, 15) rotate(-186, 25, 25)" width="50" height="50" fill="none" stroke="rgb(182, 232, 79)"/><rect transform="translate(114, 15) rotate(-189, 25, 25)" width="50" height="50" fill="none" stroke="rgb(186, 228, 73)"/><rect transform="translate(117, 15) rotate(-192, 25, 25)" width="50" height="50" fill="none" stroke="rgb(190, 224, 68)"/><rect transform="translate(120, 15) rotate(-195, 25, 25)" width="50" height="50" fill="none" stroke="rgb(194, 219, 64)"/><rect transform="translate(123, 15) rotate(-198, 25, 25)" width="50" height="50" fill="none" stroke="rgb(198, 214, 60)"/><rect transform="translate(126, 15) rotate(-201, 25, 25)" width="50" height="50" fill="none" stroke="rgb(203, 209, 57)"/><rect transform="translate(129, 15) rotate(-204, 25, 25)" width="50" height="50" fill="none" stroke="rgb(207, 204, 54)"/><rect transform="translate(132, 15) rotate(-207, 25, 25)" width="50" height="50" fill="none" stroke="rgb(212, 199, 51)"/><rect transform="translate(135, 15) rotate(-210, 25, 25)" width="50" height="50" fill="none" stroke="rgb(217, 194, 49)"/><rect transform="translate(138, 15) rotate(-213, 25, 25)" width="50" height="50" fill="none" stroke="rgb(221, 189, 48)"/><rect transform="translate(141, 15) rotate(-216, 25, 25)" width="50" height="50" fill="none" stroke="rgb(226, 183, 47)"/><rect transform="translate(144, 15) rotate(-219, 25, 25)" width="50" height="50" fill="none" stroke="rgb(231, 178, 46)"/><rect transform="translate(147, 15) rotate(-222, 25, 25)" width="50" height="50" fill="none" stroke="rgb(235, 172, 46)"/><rect transform="translate(150, 15) rotate(-225, 25, 25)" width="50" height="50" fill="none" stroke="rgb(239, 167, 47)"/><rect transform="translate(153, 15) rotate(-228, 25, 25)" width="50" height="50" fill="none" stroke="rgb(243, 161, 48)"/><rect transform="translate(156, 15) rotate(-231, 25, 25)" width="50" height="50" fill="none" stroke="rgb(247, 156, 49)"/><rect transform="translate(159, 15) rotate(-234, 25, 25)" width="50" height="50" fill="none" stroke="rgb(251, 150, 51)"/><rect transform="translate(162, 15) rotate(-237, 25, 25)" width="50" height="50" fill="none" stroke="rgb(254, 145, 53)"/><rect transform="translate(165, 15) rotate(-240, 25, 25)" width="50" height="50" fill="none" stroke="rgb(255, 140, 56)"/><rect transform="translate(168, 15) rotate(-243, 25, 25)" width="50" height="50" fill="none" stroke="rgb(255, 135, 59)"/><rect transform="translate(171, 15) rotate(-246, 25, 25)" width="50" height="50" fill="none" stroke="rgb(255, 129, 63)"/><rect transform="translate(174, 15) rotate(-249, 25, 25)" width="50" height="50" fill="none" stroke="rgb(255, 124, 66)"/><rect transform="translate(177, 15) rotate(-252, 25, 25)" width="50" height="50" fill="none" stroke="rgb(255, 120, 71)"/><rect transform="translate(180, 15) rotate(-255, 25, 25)" width="50" height="50" fill="none" stroke="rgb(255, 115, 75)"/><rect transform="translate(183, 15) rotate(-258, 25, 25)" width="50" height="50" fill="none" stroke="rgb(255, 110, 79)"/><rect transform="translate(186, 15) rotate(-261, 25, 25)" width="50" height="50" fill="none" stroke="rgb(255, 106, 84)"/><rect transform="translate(189, 15) rotate(-264, 25, 25)" width="50" height="50" fill="none" stroke="rgb(255, 102, 89)"/><rect transform="translate(192, 15) rotate(-267, 25, 25)" width="50" height="50" fill="none" stroke="rgb(255, 98, 94)"/><rect transform="translate(195, 15) rotate(-270, 25, 25)" width="50" height="50" fill="none" stroke="rgb(255, 94, 99)"/><rect transform="translate(198, 15) rotate(-273, 25, 25)" width="50" height="50" fill="none" stroke="rgb(255, 90, 105)"/><rect transform="translate(201, 15) rotate(-276, 25, 25)" width="50" height="50" fill="none" stroke="rgb(255, 87, 110)"/><rect transform="translate(204, 15) rotate(-279, 25, 25)" width="50" height="50" fill="none" stroke="rgb(255, 84, 115)"/><rect transform="translate(207, 15) rotate(-282, 25, 25)" width="50" height="50" fill="none" stroke="rgb(255, 81, 120)"/><rect transform="translate(210, 15) rotate(-285, 25, 25)" width="50" height="50" fill="none" stroke="rgb(255, 78, 125)"/><rect transform="translate(213, 15) rotate(-288, 25, 25)" width="50" height="50" fill="none" stroke="rgb(254, 75, 131)"/><rect transform="translate(216, 15) rotate(-291, 25, 25)" width="50" height="50" fill="none" stroke="rgb(251, 73, 136)"/><rect transform="translate(219, 15) rotate(-294, 25, 25)" width="50" height="50" fill="none" stroke="rgb(247, 71, 140)"/><rect transform="translate(222, 15) rotate(-297, 25, 25)" width="50" height="50" fill="none" stroke="rgb(242, 69, 145)"/><rect transform="translate(225, 15) rotate(-300, 25, 25)" width="50" height="50" fill="none" stroke="rgb(238, 67, 149)"/><rect transform="translate(228, 15) rotate(-303, 25, 25)" width="50" height="50" fill="none" stroke="rgb(233, 66, 154)"/><rect transform="translate(231, 15) rotate(-306, 25, 25)" width="50" height="50" fill="none" stroke="rgb(228, 65, 157)"/><rect transform="translate(234, 15) rotate(-309, 25, 25)" width="50" height="50" fill="none" stroke="rgb(222, 63, 161)"/><rect transform="translate(237, 15) rotate(-312, 25, 25)" width="50" height="50" fill="none" stroke="rgb(216, 63, 164)"/><rect transform="translate(240, 15) rotate(-315, 25, 25)" width="50" height="50" fill="none" stroke="rgb(210, 62, 167)"/><rect transform="translate(243, 15) rotate(-318, 25, 25)" width="50" height="50" fill="none" stroke="rgb(204, 61, 170)"/><rect transform="translate(246, 15) rotate(-321, 25, 25)" width="50" height="50" fill="none" stroke="rgb(198, 61, 173)"/><rect transform="translate(249, 15) rotate(-324, 25, 25)" width="50" height="50" fill="none" stroke="rgb(191, 60, 175)"/><rect transform="translate(252, 15) rotate(-327, 25, 25)" width="50" height="50" fill="none" stroke="rgb(184, 60, 176)"/><rect transform="translate(255, 15) rotate(-330, 25, 25)" width="50" height="50" fill="none" stroke="rgb(178, 60, 178)"/><rect transform="translate(258, 15) rotate(-333, 25, 25)" width="50" height="50" fill="none" stroke="rgb(171, 60, 178)"/><rect transform="translate(261, 15) rotate(-336, 25, 25)" width="50" height="50" fill="none" stroke="rgb(164, 61, 179)"/><rect transform="translate(264, 15) rotate(-339, 25, 25)" width="50" height="50" fill="none" stroke="rgb(157, 61, 179)"/><rect transform="translate(267, 15) rotate(-342, 25, 25)" width="50" height="50" fill="none" stroke="rgb(150, 61, 179)"/><rect transform="translate(270, 15) rotate(-345, 25, 25)" width="50" height="50" fill="none" stroke="rgb(143, 61, 178)"/><rect transform="translate(273, 15) rotate(-348, 25, 25)" width="50" height="50" fill="none" stroke="rgb(136, 62, 177)"/><rect transform="translate(276, 15) rotate(-351, 25, 25)" width="50" height="50" fill="none" stroke="rgb(129, 62, 176)"/><rect transform="translate(279, 15) rotate(-354, 25, 25)" width="50" height="50" fill="none" stroke="rgb(123, 63, 174)"/><rect transform="translate(282, 15) rotate(-357, 25, 25)" width="50" height="50" fill="none" stroke="rgb(116, 63, 172)"/><rect transform="translate(285, 15) rotate(0, 25, 25)" width="50" height="50" fill="none" stroke="rgb(110, 64, 170)"/><rect transform="translate(288, 15) rotate(-3, 25, 25)" width="50" height="50" fill="none" stroke="rgb(108, 67, 175)"/><rect transform="translate(291, 15) rotate(-6, 25, 25)" width="50" height="50" fill="none" stroke="rgb(106, 70, 181)"/><rect transform="translate(294, 15) rotate(-9, 25, 25)" width="50" height="50" fill="none" stroke="rgb(104, 73, 186)"/><rect transform="translate(297, 15) rotate(-12, 25, 25)" width="50" height="50" fill="none" stroke="rgb(102, 77, 191)"/><rect transform="translate(300, 15) rotate(-15, 25, 25)" width="50" height="50" fill="none" stroke="rgb(99, 81, 195)"/><rect transform="translate(303, 15) rotate(-18, 25, 25)" width="50" height="50" fill="none" stroke="rgb(96, 84, 200)"/><rect transform="translate(306, 15) rotate(-21, 25, 25)" width="50" height="50" fill="none" stroke="rgb(93, 88, 204)"/><rect transform="translate(309, 15) rotate(-24, 25, 25)" width="50" height="50" fill="none" stroke="rgb(90, 93, 208)"/><rect transform="translate(312, 15) rotate(-27, 25, 25)" width="50" height="50" fill="none" stroke="rgb(87, 97, 211)"/><rect transform="translate(315, 15) rotate(-30, 25, 25)" width="50" height="50" fill="none" stroke="rgb(84, 101, 214)"/><rect transform="translate(318, 15) rotate(-33, 25, 25)" width="50" height="50" fill="none" stroke="rgb(80, 106, 217)"/><rect transform="translate(321, 15) rotate(-36, 25, 25)" width="50" height="50" fill="none" stroke="rgb(76, 110, 219)"/><rect transform="translate(324, 15) rotate(-39, 25, 25)" width="50" height="50" fill="none" stroke="rgb(73, 115, 221)"/><rect transform="translate(327, 15) rotate(-42, 25, 25)" width="50" height="50" fill="none" stroke="rgb(69, 120, 223)"/><rect transform="translate(330, 15) rotate(-45, 25, 25)" width="50" height="50" fill="none" stroke="rgb(65, 125, 224)"/><rect transform="translate(333, 15) rotate(-48, 25, 25)" width="50" height="50" fill="none" stroke="rgb(61, 130, 225)"/><rect transform="translate(336, 15) rotate(-51, 25, 25)" width="50" height="50" fill="none" stroke="rgb(58, 135, 225)"/><rect transform="translate(339, 15) rotate(-54, 25, 25)" width="50" height="50" fill="none" stroke="rgb(54, 140, 225)"/><rect transform="translate(342, 15) rotate(-57, 25, 25)" width="50" height="50" fill="none" stroke="rgb(51, 145, 225)"/><rect transform="translate(345, 15) rotate(-60, 25, 25)" width="50" height="50" fill="none" stroke="rgb(47, 150, 224)"/><rect transform="translate(348, 15) rotate(-63, 25, 25)" width="50" height="50" fill="none" stroke="rgb(44, 156, 223)"/><rect transform="translate(351, 15) rotate(-66, 25, 25)" width="50" height="50" fill="none" stroke="rgb(41, 161, 221)"/><rect transform="translate(354, 15) rotate(-69, 25, 25)" width="50" height="50" fill="none" stroke="rgb(38, 166, 219)"/><rect transform="translate(357, 15) rotate(-72, 25, 25)" width="50" height="50" fill="none" stroke="rgb(35, 171, 216)"/><rect transform="translate(360, 15) rotate(-75, 25, 25)" width="50" height="50" fill="none" stroke="rgb(33, 176, 213)"/><rect transform="translate(363, 15) rotate(-78, 25, 25)" width="50" height="50" fill="none" stroke="rgb(31, 181, 210)"/><rect transform="translate(366, 15) rotate(-81, 25, 25)" width="50" height="50" fill="none" stroke="rgb(29, 186, 206)"/><rect transform="translate(369, 15) rotate(-84, 25, 25)" width="50" height="50" fill="none" stroke="rgb(28, 190, 203)"/><rect transform="translate(372, 15) rotate(-87, 25, 25)" width="50" height="50" fill="none" stroke="rgb(26, 195, 198)"/><rect transform="translate(375, 15) rotate(-90, 25, 25)" width="50" height="50" fill="none" stroke="rgb(26, 199, 194)"/><rect transform="translate(378, 15) rotate(-93, 25, 25)" width="50" height="50" fill="none" stroke="rgb(25, 204, 189)"/><rect transform="translate(381, 15) rotate(-96, 25, 25)" width="50" height="50" fill="none" stroke="rgb(25, 208, 184)"/><rect transform="translate(384, 15) rotate(-99, 25, 25)" width="50" height="50" fill="none" stroke="rgb(26, 212, 179)"/><rect transform="translate(387, 15) rotate(-102, 25, 25)" width="50" height="50" fill="none" stroke="rgb(26, 216, 174)"/><rect transform="translate(390, 15) rotate(-105, 25, 25)" width="50" height="50" fill="none" stroke="rgb(28, 219, 169)"/><rect transform="translate(393, 15) rotate(-108, 25, 25)" width="50" height="50" fill="none" stroke="rgb(29, 223, 163)"/><rect transform="translate(396, 15) rotate(-111, 25, 25)" width="50" height="50" fill="none" stroke="rgb(31, 226, 158)"/><rect transform="translate(399, 15) rotate(-114, 25, 25)" width="50" height="50" fill="none" stroke="rgb(34, 229, 152)"/><rect transform="translate(402, 15) rotate(-117, 25, 25)" width="50" height="50" fill="none" stroke="rgb(37, 232, 146)"/><rect transform="translate(405, 15) rotate(-120, 25, 25)" width="50" height="50" fill="none" stroke="rgb(40, 234, 141)"/><rect transform="translate(408, 15) rotate(-123, 25, 25)" width="50" height="50" fill="none" stroke="rgb(44, 236, 135)"/><rect transform="translate(411, 15) rotate(-126, 25, 25)" width="50" height="50" fill="none" stroke="rgb(48, 239, 130)"/><rect transform="translate(414, 15) rotate(-129, 25, 25)" width="50" height="50" fill="none" stroke="rgb(53, 240, 125)"/><rect transform="translate(417, 15) rotate(-132, 25, 25)" width="50" height="50" fill="none" stroke="rgb(58, 242, 120)"/><rect transform="translate(420, 15) rotate(-135, 25, 25)" width="50" height="50" fill="none" stroke="rgb(64, 243, 115)"/><rect transform="translate(423, 15) rotate(-138, 25, 25)" width="50" height="50" fill="none" stroke="rgb(69, 244, 111)"/><rect transform="translate(426, 15) rotate(-141, 25, 25)" width="50" height="50" fill="none" stroke="rgb(76, 245, 107)"/><rect transform="translate(429, 15) rotate(-144, 25, 25)" width="50" height="50" fill="none" stroke="rgb(82, 246, 103)"/><rect transform="translate(432, 15) rotate(-147, 25, 25)" width="50" height="50" fill="none" stroke="rgb(89, 246, 99)"/><rect transform="translate(435, 15) rotate(-150, 25, 25)" width="50" height="50" fill="none" stroke="rgb(96, 247, 96)"/><rect transform="translate(438, 15) rotate(-153, 25, 25)" width="50" height="50" fill="none" stroke="rgb(103, 247, 94)"/><rect transform="translate(441, 15) rotate(-156, 25, 25)" width="50" height="50" fill="none" stroke="rgb(111, 246, 91)"/><rect transform="translate(444, 15) rotate(-159, 25, 25)" width="50" height="50" fill="none" stroke="rgb(119, 246, 89)"/><rect transform="translate(447, 15) rotate(-162, 25, 25)" width="50" height="50" fill="none" stroke="rgb(127, 246, 88)"/><rect transform="translate(450, 15) rotate(-165, 25, 25)" width="50" height="50" fill="none" stroke="rgb(135, 245, 87)"/><rect transform="translate(453, 15) rotate(-168, 25, 25)" width="50" height="50" fill="none" stroke="rgb(143, 244, 87)"/><rect transform="translate(456, 15) rotate(-171, 25, 25)" width="50" height="50" fill="none" stroke="rgb(151, 243, 87)"/><rect transform="translate(459, 15) rotate(-174, 25, 25)" width="50" height="50" fill="none" stroke="rgb(159, 242, 88)"/><rect transform="translate(462, 15) rotate(-177, 25, 25)" width="50" height="50" fill="none" stroke="rgb(167, 241, 89)"/><rect transform="translate(465, 15) rotate(-180, 25, 25)" width="50" height="50" fill="none" stroke="rgb(175, 240, 91)"/><rect transform="translate(468, 15) rotate(-183, 25, 25)" width="50" height="50" fill="none" stroke="rgb(178, 236, 84)"/><rect transform="translate(471, 15) rotate(-186, 25, 25)" width="50" height="50" fill="none" stroke="rgb(182, 232, 79)"/><rect transform="translate(474, 15) rotate(-189, 25, 25)" width="50" height="50" fill="none" stroke="rgb(186, 228, 73)"/><rect transform="translate(477, 15) rotate(-192, 25, 25)" width="50" height="50" fill="none" stroke="rgb(190, 224, 68)"/><rect transform="translate(480, 15) rotate(-195, 25, 25)" width="50" height="50" fill="none" stroke="rgb(194, 219, 64)"/><rect transform="translate(483, 15) rotate(-198, 25, 25)" width="50" height="50" fill="none" stroke="rgb(198, 214, 60)"/><rect transform="translate(486, 15) rotate(-201, 25, 25)" width="50" height="50" fill="none" stroke="rgb(203, 209, 57)"/><rect transform="translate(489, 15) rotate(-204, 25, 25)" width="50" height="50" fill="none" stroke="rgb(207, 204, 54)"/><rect transform="translate(492, 15) rotate(-207, 25, 25)" width="50" height="50" fill="none" stroke="rgb(212, 199, 51)"/><rect transform="translate(495, 15) rotate(-210, 25, 25)" width="50" height="50" fill="none" stroke="rgb(217, 194, 49)"/><rect transform="translate(498, 15) rotate(-213, 25, 25)" width="50" height="50" fill="none" stroke="rgb(221, 189, 48)"/><rect transform="translate(501, 15) rotate(-216, 25, 25)" width="50" height="50" fill="none" stroke="rgb(226, 183, 47)"/><rect transform="translate(504, 15) rotate(-219, 25, 25)" width="50" height="50" fill="none" stroke="rgb(231, 178, 46)"/><rect transform="translate(507, 15) rotate(-222, 25, 25)" width="50" height="50" fill="none" stroke="rgb(235, 172, 46)"/><rect transform="translate(510, 15) rotate(-225, 25, 25)" width="50" height="50" fill="none" stroke="rgb(239, 167, 47)"/><rect transform="translate(513, 15) rotate(-228, 25, 25)" width="50" height="50" fill="none" stroke="rgb(243, 161, 48)"/><rect transform="translate(516, 15) rotate(-231, 25, 25)" width="50" height="50" fill="none" stroke="rgb(247, 156, 49)"/><rect transform="translate(519, 15) rotate(-234, 25, 25)" width="50" height="50" fill="none" stroke="rgb(251, 150, 51)"/><rect transform="translate(522, 15) rotate(-237, 25, 25)" width="50" height="50" fill="none" stroke="rgb(254, 145, 53)"/><rect transform="translate(525, 15) rotate(-240, 25, 25)" width="50" height="50" fill="none" stroke="rgb(255, 140, 56)"/><rect transform="translate(528, 15) rotate(-243, 25, 25)" width="50" height="50" fill="none" stroke="rgb(255, 135, 59)"/><rect transform="translate(531, 15) rotate(-246, 25, 25)" width="50" height="50" fill="none" stroke="rgb(255, 129, 63)"/><rect transform="translate(534, 15) rotate(-249, 25, 25)" width="50" height="50" fill="none" stroke="rgb(255, 124, 66)"/><rect transform="translate(537, 15) rotate(-252, 25, 25)" width="50" height="50" fill="none" stroke="rgb(255, 120, 71)"/><rect transform="translate(540, 15) rotate(-255, 25, 25)" width="50" height="50" fill="none" stroke="rgb(255, 115, 75)"/><rect transform="translate(543, 15) rotate(-258, 25, 25)" width="50" height="50" fill="none" stroke="rgb(255, 110, 79)"/><rect transform="translate(546, 15) rotate(-261, 25, 25)" width="50" height="50" fill="none" stroke="rgb(255, 106, 84)"/><rect transform="translate(549, 15) rotate(-264, 25, 25)" width="50" height="50" fill="none" stroke="rgb(255, 102, 89)"/><rect transform="translate(552, 15) rotate(-267, 25, 25)" width="50" height="50" fill="none" stroke="rgb(255, 98, 94)"/><rect transform="translate(555, 15) rotate(-270, 25, 25)" width="50" height="50" fill="none" stroke="rgb(255, 94, 99)"/><rect transform="translate(558, 15) rotate(-273, 25, 25)" width="50" height="50" fill="none" stroke="rgb(255, 90, 105)"/><rect transform="translate(561, 15) rotate(-276, 25, 25)" width="50" height="50" fill="none" stroke="rgb(255, 87, 110)"/><rect transform="translate(564, 15) rotate(-279, 25, 25)" width="50" height="50" fill="none" stroke="rgb(255, 84, 115)"/><rect transform="translate(567, 15) rotate(-282, 25, 25)" width="50" height="50" fill="none" stroke="rgb(255, 81, 120)"/><rect transform="translate(570, 15) rotate(-285, 25, 25)" width="50" height="50" fill="none" stroke="rgb(255, 78, 125)"/><rect transform="translate(573, 15) rotate(-288, 25, 25)" width="50" height="50" fill="none" stroke="rgb(254, 75, 131)"/><rect transform="translate(576, 15) rotate(-291, 25, 25)" width="50" height="50" fill="none" stroke="rgb(251, 73, 136)"/><rect transform="translate(579, 15) rotate(-294, 25, 25)" width="50" height="50" fill="none" stroke="rgb(247, 71, 140)"/><rect transform="translate(582, 15) rotate(-297, 25, 25)" width="50" height="50" fill="none" stroke="rgb(242, 69, 145)"/><rect transform="translate(585, 15) rotate(-300, 25, 25)" width="50" height="50" fill="none" stroke="rgb(238, 67, 149)"/><rect transform="translate(588, 15) rotate(-303, 25, 25)" width="50" height="50" fill="none" stroke="rgb(233, 66, 154)"/><rect transform="translate(591, 15) rotate(-306, 25, 25)" width="50" height="50" fill="none" stroke="rgb(228, 65, 157)"/><rect transform="translate(594, 15) rotate(-309, 25, 25)" width="50" height="50" fill="none" stroke="rgb(222, 63, 161)"/><rect transform="translate(597, 15) rotate(-312, 25, 25)" width="50" height="50" fill="none" stroke="rgb(216, 63, 164)"/><rect transform="translate(600, 15) rotate(-315, 25, 25)" width="50" height="50" fill="none" stroke="rgb(210, 62, 167)"/><rect transform="translate(603, 15) rotate(-318, 25, 25)" width="50" height="50" fill="none" stroke="rgb(204, 61, 170)"/><rect transform="translate(606, 15) rotate(-321, 25, 25)" width="50" height="50" fill="none" stroke="rgb(198, 61, 173)"/><rect transform="translate(609, 15) rotate(-324, 25, 25)" width="50" height="50" fill="none" stroke="rgb(191, 60, 175)"/><rect transform="translate(612, 15) rotate(-327, 25, 25)" width="50" height="50" fill="none" stroke="rgb(184, 60, 176)"/><rect transform="translate(615, 15) rotate(-330, 25, 25)" width="50" height="50" fill="none" stroke="rgb(178, 60, 178)"/><rect transform="translate(618, 15) rotate(-333, 25, 25)" width="50" height="50" fill="none" stroke="rgb(171, 60, 178)"/><rect transform="translate(621, 15) rotate(-336, 25, 25)" width="50" height="50" fill="none" stroke="rgb(164, 61, 179)"/><rect transform="translate(624, 15) rotate(-339, 25, 25)" width="50" height="50" fill="none" stroke="rgb(157, 61, 179)"/><rect transform="translate(627, 15) rotate(-342, 25, 25)" width="50" height="50" fill="none" stroke="rgb(150, 61, 179)"/><rect transform="translate(630, 15) rotate(-345, 25, 25)" width="50" height="50" fill="none" stroke="rgb(143, 61, 178)"/><rect transform="translate(633, 15) rotate(-348, 25, 25)" width="50" height="50" fill="none" stroke="rgb(136, 62, 177)"/><rect transform="translate(636, 15) rotate(-351, 25, 25)" width="50" height="50" fill="none" stroke="rgb(129, 62, 176)"/><rect transform="translate(639, 15) rotate(-354, 25, 25)" width="50" height="50" fill="none" stroke="rgb(123, 63, 174)"/><rect transform="translate(642, 15) rotate(-357, 25, 25)" width="50" height="50" fill="none" stroke="rgb(116, 63, 172)"/><rect transform="translate(645, 15) rotate(0, 25, 25)" width="50" height="50" fill="none" stroke="rgb(110, 64, 170)"/><rect transform="translate(648, 15) rotate(-3, 25, 25)" width="50" height="50" fill="none" stroke="rgb(108, 67, 175)"/><rect transform="translate(651, 15) rotate(-6, 25, 25)" width="50" height="50" fill="none" stroke="rgb(106, 70, 181)"/><rect transform="translate(654, 15) rotate(-9, 25, 25)" width="50" height="50" fill="none" stroke="rgb(104, 73, 186)"/><rect transform="translate(657, 15) rotate(-12, 25, 25)" width="50" height="50" fill="none" stroke="rgb(102, 77, 191)"/><rect transform="translate(660, 15) rotate(-15, 25, 25)" width="50" height="50" fill="none" stroke="rgb(99, 81, 195)"/><rect transform="translate(663, 15) rotate(-18, 25, 25)" width="50" height="50" fill="none" stroke="rgb(96, 84, 200)"/><rect transform="translate(666, 15) rotate(-21, 25, 25)" width="50" height="50" fill="none" stroke="rgb(93, 88, 204)"/><rect transform="translate(669, 15) rotate(-24, 25, 25)" width="50" height="50" fill="none" stroke="rgb(90, 93, 208)"/><rect transform="translate(672, 15) rotate(-27, 25, 25)" width="50" height="50" fill="none" stroke="rgb(87, 97, 211)"/><rect transform="translate(675, 15) rotate(-30, 25, 25)" width="50" height="50" fill="none" stroke="rgb(84, 101, 214)"/><rect transform="translate(678, 15) rotate(-33, 25, 25)" width="50" height="50" fill="none" stroke="rgb(80, 106, 217)"/><rect transform="translate(681, 15) rotate(-36, 25, 25)" width="50" height="50" fill="none" stroke="rgb(76, 110, 219)"/><rect transform="translate(684, 15) rotate(-39, 25, 25)" width="50" height="50" fill="none" stroke="rgb(73, 115, 221)"/><rect transform="translate(687, 15) rotate(-42, 25, 25)" width="50" height="50" fill="none" stroke="rgb(69, 120, 223)"/><rect transform="translate(690, 15) rotate(-45, 25, 25)" width="50" height="50" fill="none" stroke="rgb(65, 125, 224)"/><rect transform="translate(693, 15) rotate(-48, 25, 25)" width="50" height="50" fill="none" stroke="rgb(61, 130, 225)"/><rect transform="translate(696, 15) rotate(-51, 25, 25)" width="50" height="50" fill="none" stroke="rgb(58, 135, 225)"/><rect transform="translate(699, 15) rotate(-54, 25, 25)" width="50" height="50" fill="none" stroke="rgb(54, 140, 225)"/><rect transform="translate(702, 15) rotate(-57, 25, 25)" width="50" height="50" fill="none" stroke="rgb(51, 145, 225)"/><rect transform="translate(705, 15) rotate(-60, 25, 25)" width="50" height="50" fill="none" stroke="rgb(47, 150, 224)"/><rect transform="translate(708, 15) rotate(-63, 25, 25)" width="50" height="50" fill="none" stroke="rgb(44, 156, 223)"/><rect transform="translate(711, 15) rotate(-66, 25, 25)" width="50" height="50" fill="none" stroke="rgb(41, 161, 221)"/><rect transform="translate(714, 15) rotate(-69, 25, 25)" width="50" height="50" fill="none" stroke="rgb(38, 166, 219)"/><rect transform="translate(717, 15) rotate(-72, 25, 25)" width="50" height="50" fill="none" stroke="rgb(35, 171, 216)"/><rect transform="translate(720, 15) rotate(-75, 25, 25)" width="50" height="50" fill="none" stroke="rgb(33, 176, 213)"/><rect transform="translate(723, 15) rotate(-78, 25, 25)" width="50" height="50" fill="none" stroke="rgb(31, 181, 210)"/><rect transform="translate(726, 15) rotate(-81, 25, 25)" width="50" height="50" fill="none" stroke="rgb(29, 186, 206)"/><rect transform="translate(729, 15) rotate(-84, 25, 25)" width="50" height="50" fill="none" stroke="rgb(28, 190, 203)"/><rect transform="translate(732, 15) rotate(-87, 25, 25)" width="50" height="50" fill="none" stroke="rgb(26, 195, 198)"/><rect transform="translate(735, 15) rotate(-90, 25, 25)" width="50" height="50" fill="none" stroke="rgb(26, 199, 194)"/><rect transform="translate(738, 15) rotate(-93, 25, 25)" width="50" height="50" fill="none" stroke="rgb(25, 204, 189)"/><rect transform="translate(741, 15) rotate(-96, 25, 25)" width="50" height="50" fill="none" stroke="rgb(25, 208, 184)"/><rect transform="translate(744, 15) rotate(-99, 25, 25)" width="50" height="50" fill="none" stroke="rgb(26, 212, 179)"/><rect transform="translate(747, 15) rotate(-102, 25, 25)" width="50" height="50" fill="none" stroke="rgb(26, 216, 174)"/><rect transform="translate(750, 15) rotate(-105, 25, 25)" width="50" height="50" fill="none" stroke="rgb(28, 219, 169)"/><rect transform="translate(753, 15) rotate(-108, 25, 25)" width="50" height="50" fill="none" stroke="rgb(29, 223, 163)"/><rect transform="translate(756, 15) rotate(-111, 25, 25)" width="50" height="50" fill="none" stroke="rgb(31, 226, 158)"/><rect transform="translate(759, 15) rotate(-114, 25, 25)" width="50" height="50" fill="none" stroke="rgb(34, 229, 152)"/><rect transform="translate(762, 15) rotate(-117, 25, 25)" width="50" height="50" fill="none" stroke="rgb(37, 232, 146)"/><rect transform="translate(765, 15) rotate(-120, 25, 25)" width="50" height="50" fill="none" stroke="rgb(40, 234, 141)"/><rect transform="translate(768, 15) rotate(-123, 25, 25)" width="50" height="50" fill="none" stroke="rgb(44, 236, 135)"/><rect transform="translate(771, 15) rotate(-126, 25, 25)" width="50" height="50" fill="none" stroke="rgb(48, 239, 130)"/><rect transform="translate(774, 15) rotate(-129, 25, 25)" width="50" height="50" fill="none" stroke="rgb(53, 240, 125)"/><rect transform="translate(777, 15) rotate(-132, 25, 25)" width="50" height="50" fill="none" stroke="rgb(58, 242, 120)"/><rect transform="translate(780, 15) rotate(-135, 25, 25)" width="50" height="50" fill="none" stroke="rgb(64, 243, 115)"/><rect transform="translate(783, 15) rotate(-138, 25, 25)" width="50" height="50" fill="none" stroke="rgb(69, 244, 111)"/><rect transform="translate(786, 15) rotate(-141, 25, 25)" width="50" height="50" fill="none" stroke="rgb(76, 245, 107)"/><rect transform="translate(789, 15) rotate(-144, 25, 25)" width="50" height="50" fill="none" stroke="rgb(82, 246, 103)"/><rect transform="translate(792, 15) rotate(-147, 25, 25)" width="50" height="50" fill="none" stroke="rgb(89, 246, 99)"/><rect transform="translate(795, 15) rotate(-150, 25, 25)" width="50" height="50" fill="none" stroke="rgb(96, 247, 96)"/><rect transform="translate(798, 15) rotate(-153, 25, 25)" width="50" height="50" fill="none" stroke="rgb(103, 247, 94)"/><rect transform="translate(801, 15) rotate(-156, 25, 25)" width="50" height="50" fill="none" stroke="rgb(111, 246, 91)"/><rect transform="translate(804, 15) rotate(-159, 25, 25)" width="50" height="50" fill="none" stroke="rgb(119, 246, 89)"/><rect transform="translate(807, 15) rotate(-162, 25, 25)" width="50" height="50" fill="none" stroke="rgb(127, 246, 88)"/><rect transform="translate(810, 15) rotate(-165, 25, 25)" width="50" height="50" fill="none" stroke="rgb(135, 245, 87)"/><rect transform="translate(813, 15) rotate(-168, 25, 25)" width="50" height="50" fill="none" stroke="rgb(143, 244, 87)"/><rect transform="translate(816, 15) rotate(-171, 25, 25)" width="50" height="50" fill="none" stroke="rgb(151, 243, 87)"/><rect transform="translate(819, 15) rotate(-174, 25, 25)" width="50" height="50" fill="none" stroke="rgb(159, 242, 88)"/><rect transform="translate(822, 15) rotate(-177, 25, 25)" width="50" height="50" fill="none" stroke="rgb(167, 241, 89)"/></svg>